<?xml version="1.0" encoding="UTF-8"?>
<!-- Generator: Blender, SVG Export for Grease Pencil - v1.0 -->
<!DOCTYPE svg PUBLIC "-//W3C//DTD SVG 1.1//EN" "http://www.w3.org/Graphics/SVG/1.1/DTD/svg11.dtd">
<svg version="1.0" x="0px" y="0px" xmlns="http://www.w3.org/2000/svg" width="14px" height="14px" viewBox="0 0 14 14">
	<g id="blender_frame_1">
		<g id="blender_object_GPencil">
			<!--Layer: EyeOpen_Fills-->
			<g id="EyeOpen_Fills">
				<polygon fill="#E7E7E7" stroke="none" fill-opacity="1" points="5.609457,6.613960 5.601866,6.758135 5.610577,6.901962 5.634614,7.044519 5.672538,7.184927 5.784577,7.455558 5.857604,7.582780 5.942334,7.701844 6.039122,7.810625 6.147667,7.907422 6.265079,7.992226 6.387820,8.065447 6.635794,8.178442 6.757925,8.216932 6.879181,8.241269 7.000000,8.249760 7.120820,8.241269 7.242076,8.216932 7.364206,8.178442 7.612180,8.065447 7.734921,7.992226 7.852334,7.907422 7.960879,7.810625 8.057666,7.701844 8.142397,7.582780 8.215424,7.455558 8.327463,7.184927 8.365386,7.044519 8.389423,6.901962 8.398134,6.758135 8.390543,6.613960 8.367537,6.470532 8.330465,6.328990 8.219291,6.056267 8.146418,5.928251 8.061939,5.808458 7.965733,5.698915 7.858216,5.601415 7.741955,5.516809 7.620056,5.445710 7.495621,5.388735 7.371217,5.346204 7.247240,5.317256 7.123549,5.300734 6.876451,5.300734 6.752760,5.317256 6.628783,5.346204 6.504379,5.388735 6.379944,5.445710 6.258045,5.516809 6.141784,5.601415 6.034267,5.698915 5.938061,5.808458 5.853583,5.928251 5.780709,6.056267 5.669535,6.328990 5.632464,6.470532" />
				<polygon fill="#E7E7E7" stroke="none" fill-opacity="1" points="6.763364,9.171885 6.528541,9.132269 6.297344,9.069622 5.853318,8.885700 5.645538,8.766518 5.451482,8.628485 5.274383,8.470929 5.116844,8.293867 4.978928,8.100069 4.860065,7.892991 4.677699,7.452486 4.615972,7.223948 4.576846,6.991910 4.562667,6.757803 4.575023,6.523130 4.612471,6.289675 4.672812,6.059289 4.853769,5.615379 4.972384,5.407013 5.109889,5.212027 5.266481,5.033724 5.441906,4.875023 5.634089,4.737309 5.840499,4.621584 6.058611,4.528849 6.285933,4.459620 6.289805,2.898255 5.590770,3.018157 4.914054,3.205297 4.270820,3.449289 3.669496,3.741817 3.107607,4.082862 2.579946,4.474473 1.606362,5.414988 0.264883,7.095187 1.571256,8.528189 2.541986,9.342488 3.644979,9.987469 4.903356,10.460491 5.584529,10.624082 6.286952,10.728373 7.000000,10.764995 7.702656,9.069622 7.471459,9.132269 7.236637,9.171885 7.000000,9.185703" />
				<polygon fill="#E7E7E7" stroke="none" fill-opacity="1" points="6.285933,4.459620 6.758921,4.385610 7.241079,4.385610 7.714067,4.459620 7.941389,4.528849 8.159502,4.621584 8.365911,4.737309 8.558095,4.875023 8.733520,5.033724 8.890112,5.212027 9.027617,5.407013 9.146232,5.615379 9.327188,6.059289 9.387528,6.289675 9.424977,6.523130 9.437333,6.757803 9.423155,6.991910 9.384029,7.223948 9.322301,7.452486 9.139935,7.892991 9.021071,8.100069 8.883157,8.293867 8.725616,8.470929 8.548519,8.628485 8.354462,8.766518 8.146682,8.885700 7.702656,9.069622 7.000000,10.764995 7.713049,10.728373 8.415471,10.624082 9.096643,10.460491 10.355021,9.987469 11.458014,9.342488 12.428744,8.528189 13.735117,7.095187 12.393638,5.414988 11.420054,4.474473 10.892394,4.082862 10.330504,3.741817 9.729180,3.449290 9.085945,3.205297 8.409230,3.018157 7.710196,2.898255 7.000000,2.855981 6.289805,2.898255" />
			</g>
		</g>
	</g>
</svg>
